HIERARCHY
ROOT Hips
{
  OFFSET 0.520521 78.287 -1.6682
  CHANNELS 6 Xposition Yposition Zposition Zrotation Xrotation Yrotation
  JOINT Spine
  {
    OFFSET 0.0009 9.9235 -1.2273
    CHANNELS 3 Zrotation Xrotation Yrotation
    JOINT Spine1
    {
      OFFSET 0 11.732 0
      CHANNELS 3 Zrotation Xrotation Yrotation
      JOINT Spine2
      {
        OFFSET 0 13.4588 0
        CHANNELS 3 Zrotation Xrotation Yrotation
        JOINT Neck
        {
          OFFSET 0 15.0278 0.8779
          CHANNELS 3 Zrotation Xrotation Yrotation
          JOINT Head
          {
            OFFSET 0 10.3218 3.1424
            CHANNELS 3 Zrotation Xrotation Yrotation
            End Site
            {
              OFFSET 0.0002 18.4747 6.6364
            }
          }
        }
        JOINT LeftShoulder
        {
          OFFSET 6.1058 9.1063 0.7571
          CHANNELS 3 Zrotation Xrotation Yrotation
          JOINT LeftArm
          {
            OFFSET 0 12.9223 0
            CHANNELS 3 Zrotation Xrotation Yrotation
            JOINT LeftForeArm
            {
              OFFSET 0 27.4047 0
              CHANNELS 3 Zrotation Xrotation Yrotation
              JOINT LeftHand
              {
                OFFSET 0 27.6145 0
                CHANNELS 3 Zrotation Xrotation Yrotation
                JOINT LeftHandThumb1
                {
                  OFFSET -3.003 3.7888 2.1671
                  CHANNELS 3 Zrotation Xrotation Yrotation
                  JOINT LeftHandThumb2
                  {
                    OFFSET 0 4.745 0
                    CHANNELS 3 Zrotation Xrotation Yrotation
                    JOINT LeftHandThumb3
                    {
                      OFFSET 0 4.3821 0
                      CHANNELS 3 Zrotation Xrotation Yrotation
                      End Site
                      {
                        OFFSET 0 3.4591 0
                      }
                    }
                  }
                }
                JOINT LeftHandIndex1
                {
                  OFFSET -2.822 12.2666 0.2318
                  CHANNELS 3 Zrotation Xrotation Yrotation
                  JOINT LeftHandIndex2
                  {
                    OFFSET 0 3.892 0
                    CHANNELS 3 Zrotation Xrotation Yrotation
                    JOINT LeftHandIndex3
                    {
                      OFFSET 0 3.4152 0
                      CHANNELS 3 Zrotation Xrotation Yrotation
                      End Site
                      {
                        OFFSET 0 3.078 0
                      }
                    }
                  }
                }
                JOINT LeftHandMiddle1
                {
                  OFFSET 0 12.7755 0
                  CHANNELS 3 Zrotation Xrotation Yrotation
                  JOINT LeftHandMiddle2
                  {
                    OFFSET 0 3.614 0
                    CHANNELS 3 Zrotation Xrotation Yrotation
                    JOINT LeftHandMiddle3
                    {
                      OFFSET 0 3.4598 0
                      CHANNELS 3 Zrotation Xrotation Yrotation
                      End Site
                      {
                        OFFSET 0 3.6802 0
                      }
                    }
                  }
                }
                JOINT LeftHandRing1
                {
                  OFFSET 2.2166 12.147 -0.01
                  CHANNELS 3 Zrotation Xrotation Yrotation
                  JOINT LeftHandRing2
                  {
                    OFFSET 0 3.6012 0
                    CHANNELS 3 Zrotation Xrotation Yrotation
                    JOINT LeftHandRing3
                    {
                      OFFSET 0 3.3073 0
                      CHANNELS 3 Zrotation Xrotation Yrotation
                      End Site
                      {
                        OFFSET 0 3.6601 0
                      }
                    }
                  }
                }
                JOINT LeftHandPinky1
                {
                  OFFSET 4.7258 10.9082 0.2261
                  CHANNELS 3 Zrotation Xrotation Yrotation
                  JOINT LeftHandPinky2
                  {
                    OFFSET 0 4.1367 0
                    CHANNELS 3 Zrotation Xrotation Yrotation
                    JOINT LeftHandPinky3
                    {
                      OFFSET 0 2.5948 0
                      CHANNELS 3 Zrotation Xrotation Yrotation
                      End Site
                      {
                        OFFSET 0 2.9239 0
                      }
                    }
                  }
                }
              }
            }
          }
        }
        JOINT RightShoulder
        {
          OFFSET -6.1057 9.1064 0.7571
          CHANNELS 3 Zrotation Xrotation Yrotation
          JOINT RightArm
          {
            OFFSET 0 12.9223 0
            CHANNELS 3 Zrotation Xrotation Yrotation
            JOINT RightForeArm
            {
              OFFSET 0 27.4047 0
              CHANNELS 3 Zrotation Xrotation Yrotation
              JOINT RightHand
              {
                OFFSET 0 27.6145 0
                CHANNELS 3 Zrotation Xrotation Yrotation
                JOINT RightHandThumb1
                {
                  OFFSET 3.003 3.7888 2.1671
                  CHANNELS 3 Zrotation Xrotation Yrotation
                  JOINT RightHandThumb2
                  {
                    OFFSET 0 4.745 0
                    CHANNELS 3 Zrotation Xrotation Yrotation
                    JOINT RightHandThumb3
                    {
                      OFFSET 0 4.3821 0
                      CHANNELS 3 Zrotation Xrotation Yrotation
                      End Site
                      {
                        OFFSET 0 3.4591 0
                      }
                    }
                  }
                }
                JOINT RightHandIndex1
                {
                  OFFSET 2.822 12.2666 0.2318
                  CHANNELS 3 Zrotation Xrotation Yrotation
                  JOINT RightHandIndex2
                  {
                    OFFSET 0 3.892 0
                    CHANNELS 3 Zrotation Xrotation Yrotation
                    JOINT RightHandIndex3
                    {
                      OFFSET 0 3.4152 0
                      CHANNELS 3 Zrotation Xrotation Yrotation
                      End Site
                      {
                        OFFSET 0 3.078 0
                      }
                    }
                  }
                }
                JOINT RightHandMiddle1
                {
                  OFFSET 0 12.7755 0
                  CHANNELS 3 Zrotation Xrotation Yrotation
                  JOINT RightHandMiddle2
                  {
                    OFFSET 0 3.614 0
                    CHANNELS 3 Zrotation Xrotation Yrotation
                    JOINT RightHandMiddle3
                    {
                      OFFSET 0 3.4598 0
                      CHANNELS 3 Zrotation Xrotation Yrotation
                      End Site
                      {
                        OFFSET 0 3.6802 0
                      }
                    }
                  }
                }
                JOINT RightHandRing1
                {
                  OFFSET -2.2166 12.147 -0.01
                  CHANNELS 3 Zrotation Xrotation Yrotation
                  JOINT RightHandRing2
                  {
                    OFFSET 0 3.6012 0
                    CHANNELS 3 Zrotation Xrotation Yrotation
                    JOINT RightHandRing3
                    {
                      OFFSET 0 3.3073 0
                      CHANNELS 3 Zrotation Xrotation Yrotation
                      End Site
                      {
                        OFFSET 0 3.6601 0
                      }
                    }
                  }
                }
                JOINT RightHandPinky1
                {
                  OFFSET -4.7258 10.9082 0.2261
                  CHANNELS 3 Zrotation Xrotation Yrotation
                  JOINT RightHandPinky2
                  {
                    OFFSET 0 4.1367 0
                    CHANNELS 3 Zrotation Xrotation Yrotation
                    JOINT RightHandPinky3
                    {
                      OFFSET 0 2.5948 0
                      CHANNELS 3 Zrotation Xrotation Yrotation
                      End Site
                      {
                        OFFSET 0 2.9239 0
                      }
                    }
                  }
                }
              }
            }
          }
        }
      }
    }
  }
  JOINT LeftUpLeg
  {
    OFFSET 9.1239 -6.6572 -0.0554
    CHANNELS 3 Zrotation Xrotation Yrotation
    JOINT LeftLeg
    {
      OFFSET 0 40.5994 0
      CHANNELS 3 Zrotation Xrotation Yrotation
      JOINT LeftFoot
      {
        OFFSET 0 42.099 0
        CHANNELS 3 Zrotation Xrotation Yrotation
        JOINT LeftToeBase
        {
          OFFSET 0 15.7216 0
          CHANNELS 3 Zrotation Xrotation Yrotation
          End Site
          {
            OFFSET 0 10 0
          }
        }
      }
    }
  }
  JOINT RightUpLeg
  {
    OFFSET -9.125 -6.6556 -0.0554
    CHANNELS 3 Zrotation Xrotation Yrotation
    JOINT RightLeg
    {
      OFFSET 0 40.5994 0
      CHANNELS 3 Zrotation Xrotation Yrotation
      JOINT RightFoot
      {
        OFFSET 0 42.099 0
        CHANNELS 3 Zrotation Xrotation Yrotation
        JOINT RightToeBase
        {
          OFFSET 0 15.7216 0
          CHANNELS 3 Zrotation Xrotation Yrotation
          End Site
          {
            OFFSET 0 10 0
          }
        }
      }
    }
  }
}
MOTION
Frames:	8
Frame Time:	0.0333333
60.6476 82.0498 -30.6671 -5.98663 17.7224 -3.42876 -10.403 29.3049 4.55261 1.1276 3.22762 -0.00114439 1.11722 9.81261 0.0337275 -1.97266 -10.2587 -0.712456 -3.14299 -25.1846 -5.03965 -87.9857 -13.1796 90.321 -1.51551 33.0243 -21.5393 79.1669 3.3395e-06 -7.0796e-06 -9.12195 -29.5965 23.6129 14.7331 20.2514 -6.74645 -0.32733 1.08056 0.557235 4.57064 -3.24385 0.389173 16.9771 -13.8034 4.1732 -10.2399 55.8292 5.43547 -4.9152 35.3741 1.56826 12.9324 -3.65598 0.983427 -5.10542 36.4048 1.67979 -3.18353 24.7109 0.697497 9.22004 8.78003 -1.39622 -1.9106 15.4438 0.259078 -1.0479 8.61733 0.0789452 -1.34815 18.764 0.0644357 4.03643 0.659227 -0.0178514 0.508835 -4.20879 0.0186942 87.0765 -12.8754 -90.3788 -13.5737 12.7043 31.716 -50.0802 1.97904e-06 -2.56559e-06 -6.52392 -18.1125 20.3669 -42.9574 6.69152 18.0614 43.6446 -9.04829 5.26898 7.63645 -3.64118 0.302797 -9.30513 -21.734 -2.99951 15.2316 65.1151 -9.75912 6.29442 41.9762 -2.41674 -6.71129 -6.3756 -0.741058 6.55036 43.1088 -2.5898 3.99341 29.7448 0.00272932 -4.45109 11.9437 1.04073 2.50612 19.7381 -0.436042 1.38194 11.1935 1.02213 -0.0319404 27.3469 0.785326 8.795e-06 5.55915e-06 1.15211e-06 -0.423895 -3.474 -0.0128613 -126.146 61.7582 -50.824 -20.2911 -67.058 -25.5137 32.1678 73.5088 -31.8041 -0.68511 31.8297 -3.66093 176.221 1.32328 11.2201 -8.30521 -47.8161 4.2244 -35.3657 66.5408 49.3198 -3.50443 43.5968 18.6237 
62.4196 83.1386 -32.3535 -4.34732 18.1495 -6.74669 -12.4712 26.856 7.57779 -0.121863 3.04131 0.653222 -0.244344 9.62041 0.61611 -1.7312 -9.94036 -0.956 -2.62187 -24.1099 -6.07905 -87.5635 -13.3384 90.3006 -7.32831 36.2288 -16.0162 75.8026 -9.0494e-06 4.44102e-06 -3.41654 -25.6962 21.73 14.8411 19.9922 -6.80465 -0.230738 0.73345 1.16258 5.17754 -3.34369 0.449939 9.45175 -15.902 2.39177 -12.993 61.7751 7.7937 -5.6688 39.3007 2.02559 7.71645 -3.50332 0.513988 -5.98225 40.8142 2.22734 -3.67229 27.9567 0.9144 6.35352 11.3662 -1.33631 -2.27346 18.1962 0.364108 -1.31658 10.7797 0.124218 -2.51532 23.3259 0.428365 4.05004 0.546254 -0.0180108 0.33509 -2.77464 0.00810224 86.4323 -12.9384 -90.361 -19.6033 4.12814 34.4818 -47.9353 -5.57706e-06 4.10345e-06 -11.0231 -16.5676 16.8206 -40.4383 2.57032 16.3024 32.7338 -5.88626 2.89925 3.96747 -3.48073 0.163703 -8.57789 -23.7826 -2.90069 14.9682 64.7404 -9.52052 5.85912 39.9514 -2.13132 -6.14251 -8.2454 -0.837977 6.46632 42.7414 -2.53257 3.77252 28.3631 0.0865458 -4.04727 10.1897 0.799924 2.47607 19.5194 -0.425947 1.29796 10.5292 1.02297 0.0500664 25.62 0.656594 4.33932e-06 5.46917e-05 2.60417e-06 -0.437372 -3.58423 -0.0136913 -129.392 61.1237 -48.3817 -20.2732 -63.3328 -24.5696 39.4058 69.7962 -38.717 -0.692213 31.6969 -3.65908 179.727 -6.16212 10.9779 -5.29598 -39.7961 7.04844 -20.3661 67.9609 36.9343 -2.05651 42.6991 15.4513 
63.9621 84.1243 -34.2386 -2.71526 18.9014 -9.92029 -13.6726 23.5681 10.2467 -1.28528 2.86566 1.28461 -1.5182 9.45055 1.18988 -1.55204 -9.55375 -1.19554 -2.1568 -22.9739 -7.12975 -87.3116 -13.0354 90.3201 -14.6341 38.5052 -8.8017 73.8214 -1.18962e-05 4.23101e-06 4.97491 -23.1465 17.4523 15.1177 19.8064 -6.93644 -0.245667 0.775252 1.28372 4.73139 -3.35452 0.418327 6.84063 -15.0806 1.56954 -14.1391 63.7093 8.81268 -5.9592 40.7052 2.21229 5.80422 -1.54534 0.185519 -6.33011 42.4157 2.45837 -3.87228 29.2313 1.01013 5.20606 14.736 -1.51131 -2.42777 19.3415 0.413759 -1.44747 11.8224 0.149875 -3.34323 27.9538 0.757557 4.05929 0.469205 -0.0180852 0.217879 -1.80478 0.00343969 85.433 -12.6833 -90.3454 -25.0362 -3.3574 35.3942 -47.0921 -4.74066e-06 5.29759e-06 -13.9237 -14.0947 12.1045 -36.2442 0.0966483 15.0254 18.3704 -1.97309 0.807249 -1.41176 -3.35184 -0.119912 -7.20073 -23.3774 -2.30303 13.4828 62.4044 -8.19004 5.16275 36.4417 -1.70051 -5.04976 -8.43914 -0.683168 6.10973 41.1324 -2.29423 3.39346 25.9056 0.0741424 -3.22861 9.25649 0.592002 2.37129 18.7527 -0.391599 1.15856 9.41995 0.893843 0.402245 24.0433 0.436152 1.35548e-06 -3.96288e-08 -6.92511e-07 -0.443287 -3.63246 -0.0140598 -131.58 60.8325 -46.6885 -19.9862 -59.2195 -23.4065 43.4423 65.5036 -42.4756 -0.705702 31.4427 -3.65563 -176.554 -13.7386 10.6421 -3.15028 -29.4929 8.84635 -2.01814 64.7229 21.3224 -0.524838 38.1457 11.5863 
65.3433 84.9059 -36.3364 -1.12459 20.0007 -12.8828 -14.1746 19.5784 12.5908 -2.15991 2.70375 1.83474 -2.48816 9.3016 1.7081 -1.45419 -9.21934 -1.42222 -1.76476 -21.7401 -8.15741 -87.5293 -12.6067 90.3577 -22.5903 39.4268 -0.762258 72.5298 -8.77432e-06 -9.89855e-06 12.2275 -21.8698 11.4497 15.4275 19.8048 -7.07836 -0.292381 0.928876 1.1779 3.93051 -3.30143 0.353486 7.35772 -13.6118 1.57413 -13.824 63.2034 8.53082 -6.02292 41.0056 2.25396 6.1274 0.494807 -0.0155607 -6.27841 42.1828 2.42359 -3.91279 29.4858 1.02998 5.38191 17.5636 -1.90269 -2.42617 19.3297 0.413231 -1.47995 12.0798 0.156597 -3.5802 31.5677 0.84797 4.05866 0.474534 -0.018076 0.181001 -1.49954 0.00236381 83.9182 -12.3815 -90.3206 -30.4573 -9.20906 34.6625 -47.6782 -6.5414e-06 -5.21167e-06 -17.2387 -12.6914 8.5731 -30.4289 0.352062 14.1314 4.6262 1.34048 -0.330944 -6.74552 -3.34615 -0.518416 -5.06656 -17.9038 -1.22794 10.5082 56.2483 -5.62776 4.00264 29.803 -1.06551 -3.23415 -4.93647 -0.259927 5.30035 37.1625 -1.78293 2.7111 21.2123 -0.048219 -1.76087 10.5513 0.431373 2.13157 16.9723 -0.318061 0.908447 7.41234 0.589375 1.24661 23.5807 0.0818336 8.99601e-07 -4.57463e-06 -1.0779e-07 -0.425464 -3.48678 -0.0129502 -132.575 61.0011 -45.964 -19.4121 -55.0022 -21.8713 45.7833 60.7981 -44.5807 -0.71455 31.2759 -3.6534 -172.95 -19.7384 10.4602 -1.36953 -20.047 9.75107 9.52245 57.2574 12.4827 0.820614 29.3279 4.37446 
66.6754 85.4409 -38.6835 0.577524 21.1385 -15.6771 -14.4949 15.3388 14.8611 -2.74678 2.76256 2.30332 -3.14653 9.37498 2.17268 -1.41919 -9.01411 -1.63113 -1.44566 -20.3873 -9.13756 -88.0044 -12.558 90.3729 -29.4599 39.6723 6.68238 71.3689 -5.62388e-06 8.93409e-06 14.9994 -21.8588 5.45049 15.6722 20.0165 -7.18801 -0.336142 1.0823 0.962184 3.19913 -3.21499 0.293757 9.78391 -12.7646 2.07117 -13.123 62.008 7.90834 -6.07807 41.2634 2.29024 7.86508 1.67272 -0.168917 -6.09487 41.3414 2.30134 -3.91996 29.5307 1.0335 6.5466 19.248 -2.48837 -2.36169 18.8531 0.39216 -1.46536 11.9641 0.153542 -3.20853 33.8141 0.613437 4.05598 0.496661 -0.0180709 0.209141 -1.73246 0.00316759 82.1776 -12.5382 -90.2796 -36.3919 -13.3265 33.1866 -49.4199 -5.18061e-06 2.64534e-07 -22.7018 -13.3871 8.39314 -23.6762 3.21894 12.8877 0.473446 1.52258 -1.11302 -11.0942 -3.41286 -0.946045 -2.69167 -8.20809 -0.316144 7.49521 46.9467 -3.2586 2.63732 20.6851 -0.481375 -0.976247 1.71003 0.0303919 4.24826 31.2937 -1.19036 1.83919 14.7542 -0.233872 0.212639 13.8502 0.149662 1.79143 14.3873 -0.226128 0.575336 4.71041 0.216893 2.50486 24.2762 -0.41259 -3.06155e-06 -6.92593e-06 3.91357e-07 -0.385024 -3.15616 -0.0106127 -133.413 61.7622 -45.3577 -17.9462 -50.8745 -19.7531 47.01 55.6528 -45.8925 -0.718782 31.1959 -3.65233 -170.466 -21.0597 10.8217 0.289814 -17.9371 9.70735 15.8753 50.1727 7.66225 0.9805 26.0236 3.55279 
68.0905 85.7294 -41.2975 2.49539 21.9339 -18.3371 -14.9539 11.2894 17.0521 -3.21604 3.19121 2.71786 -3.66306 9.81793 2.6034 -1.39546 -8.90748 -1.82203 -1.19397 -18.9892 -10.0491 -88.2383 -13.0501 90.3455 -34.831 40.2864 13.2667 70.1884 -2.68313e-05 -7.9976e-06 13.171 -22.8982 1.2553 15.68 20.4527 -7.18761 -0.359663 1.16902 0.810465 3.10159 -3.19331 0.284901 11.7385 -12.9927 2.58938 -12.6907 61.2189 7.52802 -6.18116 41.7397 2.35855 9.3284 1.75443 -0.199537 -5.9612 40.7146 2.21358 -3.94367 29.6789 1.04523 7.65247 19.7634 -2.92694 -2.30471 18.4294 0.373917 -1.44142 11.7744 0.148637 -2.59755 34.7886 0.245212 4.05543 0.501248 -0.0180579 0.264481 -2.19047 0.00505831 80.5417 -13.3338 -90.2305 -42.7082 -15.7948 32.0293 -52.3018 -6.72397e-06 2.69083e-07 -29.2323 -13.4817 8.30857 -17.6254 7.47889 10.9077 0.274792 0.85591 -1.65141 -13.4741 -3.42788 -1.21945 -0.715318 1.26147 0.0158712 5.44844 37.9231 -1.87318 1.50839 12.1887 -0.161056 1.08435 8.33164 -0.0841811 3.3531 25.6383 -0.763171 1.07324 8.73776 -0.340751 2.11272 17.3719 -0.312814 1.47333 11.9135 -0.153741 0.270857 2.22143 -0.0294002 3.75623 25.4181 -0.936511 -7.61816e-06 -9.89826e-06 -3.428e-06 -0.3402 -2.78927 -0.00828855 -134.747 62.6283 -44.0624 -16.6972 -46.4423 -17.8531 47.6217 50.1991 -46.4569 -0.717144 31.227 -3.65274 -168.752 -21.4166 11.5723 1.92716 -16.4353 7.3473 19.135 42.3659 5.02904 0.918685 27.2688 3.56284 
69.6317 85.783 -44.0973 4.52505 22.1708 -20.8305 -15.4962 7.91816 18.8936 -3.72565 3.7996 3.08099 -4.20271 10.4419 2.98766 -1.34474 -8.76587 -1.99388 -1.00954 -17.7125 -10.8663 -88.108 -13.9749 90.2804 -39.4821 41.2108 19.6039 69.1737 -4.17789e-06 4.4278e-06 9.10154 -24.3666 -0.540288 15.4327 21.0466 -7.06498 -0.354845 1.15547 0.781606 3.71065 -3.25542 0.332206 12.3488 -13.8865 2.90407 -12.6239 61.0933 7.46952 -6.26968 42.1432 2.41772 9.8739 1.16593 -0.102726 -5.9257 40.5461 2.19047 -3.96902 29.8368 1.0578 8.23679 19.5248 -3.07615 -2.28226 18.262 0.366856 -1.42402 11.6362 0.14513 -2.03998 34.869 -0.0744344 4.05677 0.490283 -0.0180564 0.31005 -2.56747 0.00695243 79.1142 -14.4086 -90.1918 -48.8778 -16.8731 31.6751 -56.5248 8.14434e-06 3.33083e-06 -33.7007 -12.631 6.7011 -13.3937 12.2811 8.56045 0.223189 0.690299 -1.77582 -13.5826 -3.35084 -1.2246 0.588314 7.88513 -0.0159472 4.25255 31.3193 -1.19258 0.739477 6.04513 -0.0390396 2.53186 13.0477 -0.39324 2.75166 21.5009 -0.522523 0.53735 4.40055 -0.366722 3.50236 20.0315 -0.778937 1.24553 10.1131 -0.110199 0.054934 0.45087 -0.148009 4.69961 26.5218 -1.36531 9.70382e-07 2.22928e-05 -1.39151e-06 -0.30209 -2.47728 -0.0065375 -136.849 63.2161 -41.7096 -15.7568 -41.5631 -15.6703 45.9123 45.885 -44.1327 -0.72526 31.073 -3.65074 -167.664 -21.33 12.3708 3.06795 -15.1219 3.21775 18.3026 35.2171 5.67963 0.750973 30.5488 3.59736 
71.2776 85.5243 -47.0828 6.38354 21.8513 -22.9835 -15.7655 5.80097 20.118 -4.31681 4.25766 3.36868 -4.81512 10.9193 3.2873 -1.2925 -8.43678 -2.13969 -0.909443 -16.7416 -11.5663 -87.9768 -15.1828 90.1929 -43.8873 41.6148 25.9251 68.6097 -1.64693e-06 9.40316e-06 5.24663 -25.6042 -1.01267 15.0288 21.6077 -6.86313 -0.340897 1.10805 0.811106 4.61306 -3.36448 0.409374 12.0521 -14.6342 2.95244 -12.7494 61.3285 7.57951 -6.2572 42.0867 2.40933 9.70899 0.580136 -0.00275846 -5.95164 40.6694 2.20736 -3.95923 29.7759 1.05294 8.23012 19.0891 -2.99726 -2.2874 18.3004 0.368481 -1.41172 11.5383 0.142632 -1.87791 34.5328 -0.152633 4.05704 0.487985 -0.0180666 0.325811 -2.69778 0.00766854 77.9734 -15.2287 -90.1742 -54.536 -17.1382 31.8825 -62.0412 4.77183e-06 5.72338e-06 -35.647 -10.9721 4.0843 -12.4412 16.1473 7.31064 0.301071 0.943343 -1.5505 -11.9325 -3.1954 -1.01714 0.570078 7.49216 -0.015952 4.14039 30.6447 -1.13486 0.589892 4.82885 -0.0248601 2.56132 12.8198 -0.396296 2.68644 21.0367 -0.498859 0.43949 3.60157 -0.366749 3.60522 19.9907 -0.813705 1.22013 9.91119 -0.105797 0.019818 0.162535 -0.168854 4.81062 26.6419 -1.4176 1.90205e-06 -2.38542e-15 -2.788e-06 -0.286557 -2.35013 -0.00587399 -139.145 63.2809 -38.9062 -15.2441 -36.3028 -14.4209 42.4757 42.6497 -39.5908 -0.730009 30.983 -3.64957 -167.085 -20.8264 12.6664 3.73994 -14.5376 0.479912 16.9959 32.2762 6.43432 0.475659 35.5926 3.67609 
